<svg width="31" height="31" viewBox="0 0 31 31" fill="none" xmlns="http://www.w3.org/2000/svg">
<path d="M10.333 2.58301V6.45801" stroke="black" stroke-width="1.5" stroke-miterlimit="10" stroke-linecap="round" stroke-linejoin="round"/>
<path d="M20.667 2.58301V6.45801" stroke="black" stroke-width="1.5" stroke-miterlimit="10" stroke-linecap="round" stroke-linejoin="round"/>
<path d="M4.52051 11.7412H26.4788" stroke="black" stroke-width="1.5" stroke-miterlimit="10" stroke-linecap="round" stroke-linejoin="round"/>
<path d="M28.4163 24.5417C28.4163 25.5104 28.1451 26.4275 27.6672 27.2025C26.7759 28.7008 25.1355 29.7083 23.2497 29.7083C21.9451 29.7083 20.7568 29.2304 19.8526 28.4167C19.4522 28.0808 19.1034 27.6675 18.8322 27.2025C18.3543 26.4275 18.083 25.5104 18.083 24.5417C18.083 21.6871 20.3951 19.375 23.2497 19.375C24.7997 19.375 26.1818 20.0596 27.1247 21.1316C27.9255 22.0487 28.4163 23.2371 28.4163 24.5417Z" stroke="black" stroke-width="1.5" stroke-miterlimit="10" stroke-linecap="round" stroke-linejoin="round"/>
<path d="M21.2344 24.5412L22.5131 25.82L25.2644 23.2754" stroke="black" stroke-width="1.5" stroke-linecap="round" stroke-linejoin="round"/>
<path d="M27.125 10.9788V21.1313C26.1821 20.0592 24.8 19.3747 23.25 19.3747C20.3954 19.3747 18.0833 21.6868 18.0833 24.5413C18.0833 25.5101 18.3546 26.4272 18.8325 27.2022C19.1038 27.6672 19.4525 28.0805 19.8529 28.4163H10.3333C5.8125 28.4163 3.875 25.833 3.875 21.958V10.9788C3.875 7.10384 5.8125 4.52051 10.3333 4.52051H20.6667C25.1875 4.52051 27.125 7.10384 27.125 10.9788Z" stroke="black" stroke-width="1.5" stroke-miterlimit="10" stroke-linecap="round" stroke-linejoin="round"/>
<path d="M15.4942 17.6956H15.5058" stroke="black" stroke-width="1.5" stroke-linecap="round" stroke-linejoin="round"/>
<path d="M10.7139 17.6956H10.7255" stroke="black" stroke-width="1.5" stroke-linecap="round" stroke-linejoin="round"/>
<path d="M10.7139 21.5706H10.7255" stroke="black" stroke-width="1.5" stroke-linecap="round" stroke-linejoin="round"/>
</svg>
