<svg width="31" height="31" viewBox="0 0 31 31" fill="none" xmlns="http://www.w3.org/2000/svg">
<path d="M12.2695 17.76C12.2695 19.0129 13.2383 20.0204 14.4266 20.0204H16.8549C17.8883 20.0204 18.7279 19.1421 18.7279 18.0441C18.7279 16.8687 18.2112 16.4425 17.4491 16.1712L13.5612 14.815C12.7991 14.5437 12.2825 14.1304 12.2825 12.9421C12.2825 11.8571 13.122 10.9658 14.1554 10.9658H16.5837C17.772 10.9658 18.7408 11.9733 18.7408 13.2262" stroke="#292D32" stroke-width="1.5" stroke-linecap="round" stroke-linejoin="round"/>
<path d="M15.5 9.6875V21.3125" stroke="#292D32" stroke-width="1.5" stroke-linecap="round" stroke-linejoin="round"/>
<path d="M28.4154 15.4997C28.4154 22.6297 22.6287 28.4163 15.4987 28.4163C8.3687 28.4163 2.58203 22.6297 2.58203 15.4997C2.58203 8.36967 8.3687 2.58301 15.4987 2.58301" stroke="#292D32" stroke-width="1.5" stroke-linecap="round" stroke-linejoin="round"/>
<path d="M21.957 3.875V9.04167H27.1237" stroke="#292D32" stroke-width="1.5" stroke-linecap="round" stroke-linejoin="round"/>
<path d="M28.4154 2.58301L21.957 9.04134" stroke="#292D32" stroke-width="1.5" stroke-linecap="round" stroke-linejoin="round"/>
</svg>
