<svg width="16" height="19" viewBox="0 0 16 19" fill="none" xmlns="http://www.w3.org/2000/svg">
<path d="M14 4.73372C11.78 4.47247 9.54667 4.33789 7.32 4.33789C6 4.33789 4.68 4.41706 3.36 4.57539L2 4.73372" stroke="#FF0000" stroke-linecap="round" stroke-linejoin="round"/>
<path d="M5.66699 3.93426L5.81366 2.89717C5.92033 2.14509 6.00033 1.58301 7.12699 1.58301H8.87366C10.0003 1.58301 10.087 2.17676 10.187 2.90509L10.3337 3.93426" stroke="#FF0000" stroke-linecap="round" stroke-linejoin="round"/>
<path d="M12.5669 7.23535L12.1336 15.2074C12.0603 16.4504 12.0003 17.4162 10.1403 17.4162H5.86026C4.00026 17.4162 3.94026 16.4504 3.86693 15.2074L3.43359 7.23535" stroke="#FF0000" stroke-linecap="round" stroke-linejoin="round"/>
<path d="M6.88672 13.0625H9.10672" stroke="#FF0000" stroke-linecap="round" stroke-linejoin="round"/>
<path d="M6.33301 9.89551H9.66634" stroke="#FF0000" stroke-linecap="round" stroke-linejoin="round"/>
</svg>
