<svg width="31" height="31" viewBox="0 0 31 31" fill="none" xmlns="http://www.w3.org/2000/svg">
<path d="M11.2012 18.5092C11.2012 20.1755 12.4799 21.5188 14.0687 21.5188H17.3108C18.6928 21.5188 19.8166 20.3434 19.8166 18.8967C19.8166 17.3209 19.132 16.7655 18.1116 16.4038L12.9062 14.5955C11.8858 14.2338 11.2012 13.6784 11.2012 12.1026C11.2012 10.6559 12.3249 9.48047 13.707 9.48047H16.9491C18.5378 9.48047 19.8166 10.8238 19.8166 12.4901" stroke="#292D32" stroke-width="1.5" stroke-linecap="round" stroke-linejoin="round"/>
<path d="M15.5 7.75V23.25" stroke="#292D32" stroke-width="1.5" stroke-linecap="round" stroke-linejoin="round"/>
<path d="M15.4997 28.4163C22.6334 28.4163 28.4163 22.6334 28.4163 15.4997C28.4163 8.366 22.6334 2.58301 15.4997 2.58301C8.366 2.58301 2.58301 8.366 2.58301 15.4997C2.58301 22.6334 8.366 28.4163 15.4997 28.4163Z" stroke="#292D32" stroke-width="1.5" stroke-linecap="round" stroke-linejoin="round"/>
</svg>
