<svg width="31" height="31" viewBox="0 0 31 31" fill="none" xmlns="http://www.w3.org/2000/svg">
<path d="M12.2705 17.76C12.2705 19.0129 13.2393 20.0204 14.4276 20.0204H16.8559C17.8892 20.0204 18.7288 19.1421 18.7288 18.0441C18.7288 16.8687 18.2122 16.4425 17.4501 16.1712L13.5622 14.815C12.8001 14.5437 12.2834 14.1304 12.2834 12.9421C12.2834 11.8571 13.123 10.9658 14.1563 10.9658H16.5847C17.773 10.9658 18.7418 11.9733 18.7418 13.2262" stroke="#292D32" stroke-width="1.5" stroke-linecap="round" stroke-linejoin="round"/>
<path d="M15.5 9.6875V21.3125" stroke="#292D32" stroke-width="1.5" stroke-linecap="round" stroke-linejoin="round"/>
<path d="M28.4163 15.4997C28.4163 22.6297 22.6297 28.4163 15.4997 28.4163C8.36967 28.4163 2.58301 22.6297 2.58301 15.4997C2.58301 8.36967 8.36967 2.58301 15.4997 2.58301" stroke="#292D32" stroke-width="1.5" stroke-linecap="round" stroke-linejoin="round"/>
<path d="M28.4167 7.74967V2.58301H23.25" stroke="#292D32" stroke-width="1.5" stroke-linecap="round" stroke-linejoin="round"/>
<path d="M21.958 9.04134L28.4163 2.58301" stroke="#292D32" stroke-width="1.5" stroke-linecap="round" stroke-linejoin="round"/>
</svg>
