<svg width="15" height="17" viewBox="0 0 15 17" fill="none" xmlns="http://www.w3.org/2000/svg">
<path d="M12.276 4.23576C10.3294 4.00201 8.37116 3.88159 6.41872 3.88159C5.26128 3.88159 4.10385 3.95243 2.94642 4.09409L1.75391 4.23576" stroke="#292D32" stroke-linecap="round" stroke-linejoin="round"/>
<path d="M4.96875 3.5205L5.09735 2.59258C5.19088 1.91966 5.26103 1.41675 6.24894 1.41675H7.7805C8.76841 1.41675 8.8444 1.948 8.93209 2.59966L9.06069 3.5205" stroke="#292D32" stroke-linecap="round" stroke-linejoin="round"/>
<path d="M11.0193 6.47412L10.6393 13.607C10.575 14.7191 10.5224 15.5833 8.89145 15.5833H5.13855C3.50762 15.5833 3.45501 14.7191 3.39071 13.607L3.01074 6.47412" stroke="#292D32" stroke-linecap="round" stroke-linejoin="round"/>
<path d="M6.03809 11.6875H7.98468" stroke="#292D32" stroke-linecap="round" stroke-linejoin="round"/>
<path d="M5.55371 8.85425H8.47653" stroke="#292D32" stroke-linecap="round" stroke-linejoin="round"/>
</svg>
